<svg width="17" height="22" viewBox="0 0 17 22" fill="none" xmlns="http://www.w3.org/2000/svg">
<path fill-rule="evenodd" clip-rule="evenodd" d="M1.89195 0.0627846C1.07112 0.251671 0.364987 0.94464 0.075892 1.84493C0.00267574 2.07293 0 2.39698 0 10.9991C0 19.6013 0.00267574 19.9253 0.075892 20.1533C0.294081 20.8328 0.766257 21.4237 1.3228 21.7136C1.9018 22.0153 1.52959 21.9999 8.25 21.9999C13.4008 21.9999 14.3526 21.9905 14.5894 21.9373C15.4269 21.7492 16.1317 21.0639 16.4241 20.1533C16.4973 19.9253 16.5 19.6013 16.5 10.9991C16.5 2.39698 16.4973 2.07293 16.4241 1.84493C16.2059 1.16546 15.7337 0.57456 15.1772 0.284634C14.5977 -0.0172395 14.9739 -0.00189655 8.22973 0.0010689C3.22986 0.00326075 2.103 0.01422 1.89195 0.0627846ZM2.40645 2.66829C2.32524 2.71819 2.22032 2.83157 2.17334 2.92027C2.09027 3.07692 2.08784 3.13108 2.08784 4.83187C2.08784 6.55849 2.08905 6.58453 2.17751 6.75137C2.22681 6.84442 2.33173 6.96308 2.41062 7.01508L2.55405 7.10967H8.25H13.9459L14.0894 7.01508C14.1683 6.96308 14.2732 6.84442 14.3225 6.75137C14.4109 6.58453 14.4122 6.55849 14.4122 4.83187C14.4122 3.12863 14.4099 3.07714 14.3263 2.91954C14.2791 2.83045 14.1717 2.71664 14.0877 2.66658L13.9349 2.57555L8.24449 2.57654L2.55405 2.57753L2.40645 2.66829ZM3.25054 9.01796C2.11974 9.41447 1.76753 10.9106 2.59776 11.7908C3.2387 12.4703 4.27127 12.4522 4.88096 11.7511C5.36104 11.1989 5.42874 10.3399 5.04247 9.70186C4.67392 9.093 3.88986 8.79375 3.25054 9.01796ZM7.84459 8.99772C7.18861 9.1912 6.72073 9.79508 6.67784 10.5035C6.63077 11.2815 7.07092 11.9655 7.78086 12.2175C8.59561 12.5067 9.5235 11.9698 9.77145 11.0657C10.1059 9.84583 8.99854 8.65734 7.84459 8.99772ZM12.4149 8.98298C12.2081 9.03464 11.9533 9.17491 11.7519 9.34803C11.087 9.91937 11.0236 11.0663 11.619 11.7511C11.9505 12.1323 12.3626 12.307 12.8694 12.2812C13.7985 12.234 14.4966 11.3125 14.3359 10.3454C14.2886 10.0605 14.1427 9.71781 13.9891 9.5309C13.6093 9.0685 12.9672 8.84506 12.4149 8.98298ZM3.46622 12.9847C2.99854 13.0599 2.53034 13.4193 2.31616 13.8675C1.82984 14.8849 2.40466 16.0888 3.47068 16.2856C4.15889 16.4127 4.83697 16.0298 5.14532 15.34C5.259 15.0857 5.27027 15.0217 5.27027 14.6307C5.27027 14.2501 5.2573 14.1715 5.15676 13.9431C4.85562 13.2588 4.17174 12.8712 3.46622 12.9847ZM8.02123 12.9795C7.58846 13.0398 7.16234 13.3342 6.91861 13.7412C6.5072 14.4281 6.61561 15.2983 7.1824 15.8591C7.42528 16.0994 7.68089 16.2331 8.00254 16.288C8.48635 16.3706 8.95516 16.2177 9.31759 15.8591C10.4481 14.7405 9.55881 12.765 8.02123 12.9795ZM12.5618 12.9779C12.0593 13.0518 11.5585 13.4469 11.3441 13.9386C11.2427 14.1711 11.2297 14.2499 11.2297 14.6307C11.2297 15.0217 11.241 15.0857 11.3547 15.34C11.663 16.0298 12.3411 16.4127 13.0293 16.2856C14.2454 16.0611 14.763 14.5974 13.9929 13.5603C13.6847 13.1451 13.0847 12.901 12.5618 12.9779ZM3.30503 17.0391C3.00559 17.1282 2.79004 17.2686 2.57104 17.5174C1.83454 18.3539 2.07884 19.678 3.06069 20.1713C3.30065 20.2919 3.36085 20.3038 3.7307 20.3038C4.107 20.3038 4.15678 20.2934 4.40388 20.1645C4.93488 19.8872 5.25701 19.3712 5.28336 18.7555C5.30238 18.3114 5.21793 17.9984 4.99111 17.6724C4.60038 17.1106 3.92177 16.8558 3.30503 17.0391ZM7.86486 17.0336C7.20507 17.2069 6.72142 17.8208 6.67784 18.5403C6.61845 19.5214 7.32608 20.3243 8.25 20.3243C9.17392 20.3243 9.88155 19.5214 9.82216 18.5403C9.75941 17.5038 8.82199 16.7821 7.86486 17.0336ZM12.4149 17.017C11.8856 17.1587 11.4157 17.6307 11.2681 18.1692C11.1617 18.5572 11.1982 19.0346 11.3611 19.3853C11.5194 19.7259 11.8095 20.0278 12.1331 20.1886C12.336 20.2894 12.4153 20.3038 12.7703 20.3038C13.1391 20.3038 13.1995 20.2918 13.4393 20.1713C14.2593 19.7593 14.5899 18.7405 14.1814 17.8845C14.0325 17.5724 13.6674 17.2203 13.3697 17.1018C13.1055 16.9966 12.6443 16.9556 12.4149 17.017Z" fill="#BAE9F1"/>
</svg>
