<svg width="22" height="22" viewBox="0 0 22 22" fill="none" xmlns="http://www.w3.org/2000/svg">
<path d="M10.7383 0.114746C16.6691 0.114746 21.4767 4.9223 21.4767 10.8531C21.4767 16.7839 16.6691 21.5914 10.7383 21.5914C8.84064 21.5945 6.97634 21.0923 5.33697 20.1364L0.00431044 21.5914L1.45613 16.2566C0.499447 14.6167 -0.00315533 12.7516 1.49051e-05 10.8531C1.49051e-05 4.9223 4.80757 0.114746 10.7383 0.114746ZM7.07872 5.80606L6.86396 5.81465C6.72492 5.82312 6.58903 5.85965 6.46449 5.92204C6.348 5.988 6.24167 6.07047 6.14878 6.16687C6.01992 6.28821 5.9469 6.39345 5.86851 6.49546C5.47133 7.01187 5.25747 7.64587 5.26072 8.29735C5.26287 8.82353 5.40032 9.33575 5.61509 9.81468C6.05429 10.7833 6.77698 11.8088 7.73054 12.7591C7.96034 12.9879 8.18585 13.2177 8.42853 13.4314C9.61339 14.4745 11.0253 15.2268 12.552 15.6284L13.162 15.7218C13.3606 15.7326 13.5593 15.7175 13.759 15.7079C14.0718 15.6917 14.3772 15.6071 14.6535 15.4598C14.7942 15.3874 14.9314 15.3086 15.0648 15.2236C15.0648 15.2236 15.111 15.1935 15.199 15.1269C15.344 15.0195 15.4331 14.9433 15.5534 14.8177C15.6425 14.7253 15.7199 14.6169 15.7789 14.4934C15.8627 14.3183 15.9464 13.9844 15.9808 13.7063C16.0066 13.4936 15.9991 13.3777 15.9958 13.3057C15.9915 13.1908 15.896 13.0716 15.7918 13.0211L15.1668 12.7409C15.1668 12.7409 14.2326 12.3339 13.6613 12.074C13.6015 12.0479 13.5375 12.033 13.4723 12.03C13.3989 12.0225 13.3246 12.0307 13.2546 12.0542C13.1846 12.0778 13.1204 12.116 13.0664 12.1664C13.061 12.1642 12.9891 12.2254 12.2127 13.1661C12.1682 13.226 12.1068 13.2712 12.0364 13.2961C11.966 13.321 11.8898 13.3243 11.8175 13.3057C11.7476 13.287 11.6791 13.2633 11.6124 13.2348C11.4793 13.179 11.4331 13.1575 11.3418 13.1189C10.7255 12.8499 10.1549 12.4865 9.65055 12.0418C9.51525 11.9237 9.38961 11.7948 9.26075 11.6703C8.83829 11.2657 8.47011 10.808 8.16544 10.3086L8.10209 10.2066C8.05658 10.1381 8.01979 10.0641 7.99256 9.98649C7.95175 9.82864 8.05806 9.70193 8.05806 9.70193C8.05806 9.70193 8.319 9.41629 8.44034 9.26166C8.55847 9.11132 8.65833 8.96528 8.72276 8.86112C8.84947 8.65709 8.8892 8.44769 8.82263 8.28554C8.52195 7.55104 8.21054 6.81976 7.89054 6.09385C7.82718 5.94995 7.63926 5.84687 7.46852 5.82646C7.41054 5.82002 7.35255 5.81358 7.29456 5.80928C7.15035 5.80212 7.00585 5.80355 6.86181 5.81358L7.07765 5.80499L7.07872 5.80606Z" fill="#00B9BB"/>
</svg>
