<svg width="218" height="44" fill="none" xmlns="http://www.w3.org/2000/svg"><path stroke="#fff" stroke-width=".069" d="M23.168 21.96h-.371"/><path d="M44.084 35V8.457h17.574v4.627H49.696v6.324h10.796v4.627H49.696V35h-5.612zM71.045 8.457V35h-5.612V8.457h5.612zm9.88 0l5.352 9.046h.208l5.379-9.046H98.2l-8.1 13.271L98.383 35h-6.455l-5.443-9.06h-.208L80.834 35h-6.429l8.308-13.272-8.152-13.271h6.364zm37.31 26.932c-1.831 0-3.413-.328-4.743-.985-1.331-.657-2.355-1.547-3.072-2.67-.708-1.132-1.063-2.393-1.063-3.784 0-1.037.208-1.957.622-2.761.415-.804.994-1.542 1.737-2.216a23.15 23.15 0 012.592-2.035l5.146-3.383c.665-.423 1.153-.868 1.464-1.335.311-.475.467-.99.467-1.542 0-.527-.212-1.016-.635-1.465-.424-.45-1.024-.67-1.802-.66-.518 0-.967.116-1.348.35-.38.224-.678.522-.894.893a2.415 2.415 0 00-.311 1.219c0 .553.156 1.114.467 1.685.311.57.725 1.175 1.244 1.814.518.63 1.084 1.314 1.698 2.048L132.389 35h-5.755l-10.498-11.69a77.616 77.616 0 01-2.074-2.463 14.305 14.305 0 01-1.711-2.748 7.383 7.383 0 01-.687-3.175c0-1.287.298-2.445.895-3.473.604-1.029 1.451-1.84 2.54-2.437 1.089-.605 2.359-.907 3.81-.907 1.417 0 2.64.29 3.668.868 1.037.57 1.832 1.33 2.385 2.281.562.942.843 1.979.843 3.11 0 1.254-.311 2.39-.934 3.41-.613 1.01-1.477 1.918-2.592 2.721l-5.417 3.901c-.735.536-1.279 1.085-1.633 1.646-.346.553-.519 1.085-.519 1.595 0 .63.156 1.196.467 1.697a3.28 3.28 0 001.322 1.193c.57.285 1.24.427 2.009.427.933 0 1.853-.211 2.76-.635a8.262 8.262 0 002.489-1.827 9.126 9.126 0 001.801-2.825c.45-1.09.674-2.295.674-3.617h4.575c0 1.625-.177 3.09-.531 4.394-.354 1.296-.847 2.428-1.477 3.396-.631.959-1.353 1.745-2.165 2.359-.259.164-.51.32-.752.466-.242.147-.492.303-.751.467a9.386 9.386 0 01-3.305 1.724c-1.21.354-2.407.531-3.591.531z" fill="#fff"/><path d="M143.24 35V8.457h17.575v4.627h-11.963v6.324h10.796v4.627h-10.796V35h-5.612zm21.35 0V8.457h5.612v21.916h11.379V35H164.59zm26.32-26.543V35h-5.612V8.457h5.612zM195.527 35V8.457h10.472c2.014 0 3.729.384 5.146 1.153 1.417.76 2.497 1.819 3.24 3.176.752 1.347 1.128 2.903 1.128 4.665 0 1.763-.381 3.318-1.141 4.666-.76 1.348-1.862 2.398-3.305 3.15-1.434.751-3.171 1.127-5.21 1.127h-6.675v-4.497h5.768c1.08 0 1.97-.186 2.67-.557.708-.38 1.235-.903 1.581-1.569.354-.674.531-1.447.531-2.32 0-.881-.177-1.65-.531-2.307-.346-.665-.873-1.18-1.581-1.542-.709-.372-1.608-.557-2.696-.557h-3.785V35h-5.612z" fill="#00B9BB"/><path fill-rule="evenodd" clip-rule="evenodd" d="M.28 8.429v26.953h7.317v-3.648L3.91 27.24l3.724-4.642v2.256h5.894v-5.896H7.597v-4.632H19.23V8.429H.279z" fill="#00B9BB"/><path fill-rule="evenodd" clip-rule="evenodd" d="M28.375 35.407V8.453h-7.317v3.404l3.687 4.495-3.724 4.642v-2.012h-5.895v5.896h5.932v4.633H9.424v5.896h18.951z" fill="#fff"/><path stroke="#fff" stroke-width=".07" d="M26.024 21.987h-.418"/></svg>