<?xml version="1.0" encoding="utf-8"?><svg viewBox="0 0 22 22" xmlns="http://www.w3.org/2000/svg" xmlns:xlink="http://www.w3.org/1999/xlink"><style>:root>svg{display:none}:root>svg:target{display:block}</style><svg viewBox="0 0 17 22" id="calc" xmlns="http://www.w3.org/2000/svg"><path fill-rule="evenodd" clip-rule="evenodd" d="M1.892.063C1.072.252.365.945.076 1.845.003 2.073 0 2.397 0 10.999s.003 8.926.076 9.154c.218.68.69 1.27 1.247 1.56.579.302.207.287 6.927.287 5.15 0 6.103-.01 6.34-.063.837-.188 1.542-.873 1.834-1.784.073-.228.076-.552.076-9.154s-.003-8.926-.076-9.154c-.218-.68-.69-1.27-1.247-1.56-.58-.302-.203-.287-6.947-.284-5 .002-6.127.013-6.338.062zm.514 2.605a.773.773 0 00-.233.252c-.083.157-.085.211-.085 1.912 0 1.726.001 1.753.09 1.92.049.092.154.211.233.263l.143.095h11.392l.143-.095a.845.845 0 00.233-.264c.089-.166.09-.193.09-1.92 0-1.702-.002-1.754-.086-1.911a.763.763 0 00-.238-.253l-.153-.091h-5.69l-5.69.002-.149.09zm.845 6.35c-1.131.396-1.483 1.893-.653 2.773.64.68 1.673.661 2.283-.04.48-.552.548-1.411.161-2.05-.368-.608-1.152-.907-1.791-.683zm4.594-.02c-.656.193-1.124.797-1.167 1.506-.047.777.393 1.462 1.103 1.713.815.29 1.743-.247 1.99-1.151.335-1.22-.772-2.409-1.926-2.068zm4.57-.015a1.767 1.767 0 00-.663.365c-.665.571-.728 1.718-.133 2.403a1.47 1.47 0 001.25.53c.93-.047 1.628-.969 1.467-1.936-.047-.285-.193-.627-.347-.814-.38-.463-1.022-.686-1.574-.548zm-8.949 4.002c-.467.075-.936.434-1.15.883-.486 1.017.089 2.22 1.155 2.418.688.127 1.366-.256 1.674-.946.114-.254.125-.318.125-.71 0-.38-.013-.459-.113-.687-.301-.684-.985-1.072-1.69-.958zm4.555-.005c-.433.06-.859.354-1.102.761a1.724 1.724 0 00.263 2.118c.243.24.499.374.82.429a1.48 1.48 0 001.316-.429c1.13-1.118.24-3.094-1.297-2.88zm4.54-.002c-.502.074-1.002.469-1.217.96-.101.233-.114.312-.114.693 0 .39.011.455.125.709.308.69.986 1.073 1.674.946 1.216-.225 1.734-1.689.964-2.726-.308-.415-.908-.659-1.431-.582zm-9.256 4.061c-.3.09-.515.23-.734.478-.736.837-.492 2.161.49 2.654.24.12.3.133.67.133.376 0 .426-.01.673-.14.53-.277.853-.793.88-1.409.018-.444-.066-.757-.293-1.083-.39-.561-1.07-.816-1.686-.633zm4.56-.005c-.66.173-1.144.787-1.187 1.506-.06.981.648 1.784 1.572 1.784s1.632-.803 1.572-1.784c-.063-1.036-1-1.758-1.957-1.506zm4.55-.017c-.53.142-1 .614-1.147 1.152-.106.388-.07.866.093 1.216.158.34.448.643.772.804.203.1.282.115.637.115.37 0 .43-.012.67-.133.82-.412 1.15-1.43.741-2.287-.148-.312-.514-.664-.811-.782-.264-.105-.726-.146-.955-.085z"/></svg><svg viewBox="0 0 18 18" id="phone" xmlns="http://www.w3.org/2000/svg"><path d="M18 13.42v3.536a1 1 0 01-.93.998c-.437.03-.794.046-1.07.046C7.163 18 0 10.837 0 2c0-.276.015-.633.046-1.07A1 1 0 011.044 0H4.58a.5.5 0 01.498.45c.023.23.044.413.064.552A13.9 13.9 0 006.35 5.003c.095.2.033.439-.147.567L4.045 7.112a13.047 13.047 0 006.844 6.844l1.54-2.154a.462.462 0 01.573-.149c1.265.6 2.614 1.007 4 1.205.139.02.322.041.55.064a.5.5 0 01.448.498z"/></svg><svg viewBox="0 0 22 19" id="telegramm" xmlns="http://www.w3.org/2000/svg"><path d="M20.027.124L1.003 7.777c-1.298.545-1.291 1.3-.238 1.637l4.884 1.59 11.3-7.44c.535-.338 1.023-.156.622.216L8.415 12.4h-.002l.002.002-.337 5.253c.494 0 .712-.237.988-.515l2.373-2.407 4.934 3.803c.91.522 1.564.254 1.79-.88l3.24-15.927c.331-1.387-.508-2.015-1.376-1.605z"/></svg><svg viewBox="0 0 22 22" id="whatsapp" xmlns="http://www.w3.org/2000/svg"><path d="M10.738.115c5.931 0 10.739 4.807 10.739 10.738 0 5.93-4.808 10.738-10.739 10.738-1.897.003-3.762-.499-5.401-1.455L.004 21.591l1.452-5.334A10.688 10.688 0 010 10.853C0 4.923 4.808.115 10.738.115zm-3.66 5.691l-.214.009a1.032 1.032 0 00-.4.107 1.389 1.389 0 00-.315.245c-.13.121-.202.226-.28.328a2.932 2.932 0 00-.608 1.802c.002.527.14 1.039.354 1.518.44.968 1.162 1.994 2.116 2.944.23.229.455.459.698.672a10.147 10.147 0 004.123 2.197l.61.094c.199.01.397-.005.597-.014.313-.016.618-.1.894-.248.141-.073.278-.151.412-.236 0 0 .046-.03.134-.097.145-.107.234-.184.354-.31.09-.092.167-.2.226-.324.084-.175.167-.509.202-.787.026-.212.018-.328.015-.4-.005-.115-.1-.234-.204-.285l-.625-.28s-.934-.407-1.506-.667a.534.534 0 00-.189-.044.519.519 0 00-.406.136c-.005-.002-.077.06-.853 1a.375.375 0 01-.395.14 1.525 1.525 0 01-.206-.071c-.133-.056-.179-.077-.27-.116a6.472 6.472 0 01-1.691-1.077c-.136-.118-.261-.247-.39-.372a6.761 6.761 0 01-1.096-1.361l-.063-.102a.99.99 0 01-.11-.22c-.04-.158.066-.285.066-.285s.261-.286.382-.44c.118-.15.218-.297.283-.4.126-.205.166-.414.1-.576a89.44 89.44 0 00-.932-2.192c-.064-.144-.252-.247-.422-.268a4.781 4.781 0 00-.174-.017 3.635 3.635 0 00-.433.005l.216-.009v.001z"/></svg></svg>