<svg width="66" height="65" fill="none" xmlns="http://www.w3.org/2000/svg"><g opacity=".1"><rect x=".75" y=".75" width="64.5" height="63" rx="9.75" fill="#D9D9D9"/><rect x=".75" y=".75" width="64.5" height="63" rx="9.75" fill="url(#paint0_linear_502_66)"/><rect x=".75" y=".75" width="64.5" height="63" rx="9.75" stroke="url(#paint1_linear_502_66)" stroke-width="1.5"/></g><path fill-rule="evenodd" clip-rule="evenodd" d="M38.891 19.083c-.555.242-.743 1.016-.357 1.475.29.344.426.371 1.906.371h1.347l-3.179 3.183-3.179 3.182-2.667-2.666c-2.889-2.886-2.79-2.806-3.345-2.706-.2.036-.645.46-3.823 3.642-3.903 3.907-3.742 3.718-3.637 4.277.056.297.416.658.713.714.554.104.41.224 3.824-3.188l3.149-3.148 2.667 2.665c2.888 2.887 2.79 2.807 3.345 2.706.2-.036.651-.466 3.857-3.671l3.63-3.631v1.344c0 1.514.026 1.637.397 1.92.19.145.285.174.574.174.375 0 .57-.1.804-.415.121-.163.124-.233.124-2.928v-2.76l-.173-.229c-.304-.399-.284-.396-3.185-.394-2.032.002-2.649.02-2.792.083zm.877 11.537c-1.309.156-2.26.422-3.136.877-1.153.6-1.9 1.452-2.1 2.393-.046.22-.068 1.617-.068 4.438 0 4.524-.003 4.473.37 5.174.198.373.777.985 1.206 1.276.73.495 1.826.91 2.944 1.113.81.148 2.697.145 3.526-.005 1.992-.36 3.574-1.295 4.165-2.463.325-.64.325-.65.325-5.116 0-4.467 0-4.475-.325-5.116-.588-1.162-2.19-2.112-4.135-2.455-.547-.096-2.319-.17-2.772-.116zm-.107 1.959c-1.166.151-2.307.613-2.866 1.16-.532.52-.532.893 0 1.413.93.91 3.031 1.401 4.963 1.16 1.114-.138 2.249-.562 2.818-1.054.272-.234.495-.601.495-.813 0-.211-.223-.579-.495-.813-.346-.299-1.233-.721-1.825-.87a9.003 9.003 0 00-3.09-.183zM25.304 34.48c-1.309.156-2.26.423-3.136.878-1.153.6-1.9 1.451-2.1 2.393-.043.203-.068 1.116-.068 2.506 0 2.407.02 2.589.37 3.244.198.373.776.985 1.206 1.276.73.495 1.826.91 2.944 1.113.81.148 2.696.145 3.526-.005 1.992-.36 3.573-1.295 4.165-2.463.303-.599.325-.813.325-3.185s-.022-2.586-.325-3.185c-.588-1.162-2.19-2.112-4.135-2.455-.547-.096-2.32-.17-2.772-.117zm-.108 1.96c-1.165.151-2.306.613-2.866 1.16-.532.52-.532.892 0 1.413.932.91 3.032 1.4 4.964 1.16 1.114-.138 2.248-.563 2.818-1.054.271-.234.495-.601.495-.813 0-.212-.224-.579-.495-.813-.347-.299-1.233-.721-1.825-.87a9.002 9.002 0 00-3.09-.183zm11.197 1.423c0 .687.076.886.475 1.233.98.853 3.042 1.307 4.89 1.078 1.114-.139 2.249-.564 2.818-1.055.401-.346.495-.585.495-1.26v-.57l-.497.233c-1.141.535-2.237.749-3.842.749-1.604 0-2.7-.214-3.842-.75l-.497-.233v.575zm-14.464 3.862c0 .687.076.886.475 1.232.98.854 3.042 1.308 4.89 1.078 1.114-.138 2.248-.563 2.818-1.054.401-.346.495-.585.495-1.26v-.571l-.497.233c-1.142.536-2.238.75-3.842.75-1.605 0-2.7-.214-3.842-.75l-.497-.233v.575zm14.464 0c0 .687.076.886.475 1.232.98.854 3.042 1.308 4.89 1.078 1.114-.138 2.249-.563 2.818-1.054.401-.346.495-.585.495-1.26v-.571l-.497.233c-1.141.536-2.237.75-3.842.75-1.604 0-2.7-.214-3.842-.75l-.497-.233v.575z" fill="#BAE9F1"/><defs><linearGradient id="paint0_linear_502_66" x1="33" y1="0" x2="52.104" y2="87.414" gradientUnits="userSpaceOnUse"><stop stop-color="#2C4262"/><stop offset="1" stop-color="#202F45"/></linearGradient><linearGradient id="paint1_linear_502_66" x1="33" y1="0" x2="33" y2="64.5" gradientUnits="userSpaceOnUse"><stop stop-color="#fff"/><stop offset="1" stop-color="#fff" stop-opacity="0"/></linearGradient></defs></svg>