<svg width="66" height="65" fill="none" xmlns="http://www.w3.org/2000/svg"><g opacity=".1"><rect x=".75" y=".75" width="64.5" height="63" rx="9.75" fill="#D9D9D9"/><rect x=".75" y=".75" width="64.5" height="63" rx="9.75" fill="url(#paint0_linear_502_67)"/><rect x=".75" y=".75" width="64.5" height="63" rx="9.75" stroke="url(#paint1_linear_502_67)" stroke-width="1.5"/></g><path fill-rule="evenodd" clip-rule="evenodd" d="M26.94 26.916c-.562 0-1.016-.474-.93-1.034C26.555 22.48 29.115 20 33.559 20 38.003 20 41 22.72 41 26.43c0 2.688-1.314 4.576-3.536 5.946-2.174 1.318-2.794 2.236-2.794 4.02v.06c0 .265-.104.52-.29.707a.982.982 0 01-.698.293h-1.521a.982.982 0 01-.695-.29 1.006 1.006 0 01-.293-.7l-.006-.4c-.085-2.442.943-4.002 3.25-5.424 2.035-1.264 2.76-2.27 2.76-4.056 0-1.958-1.497-3.396-3.805-3.396-1.993 0-3.378 1.058-3.829 2.804-.13.508-.55.922-1.067.922H26.94zM32.907 44c1.229 0 2.163-.948 2.163-2.18 0-1.236-.934-2.184-2.163-2.184-1.198 0-2.148.948-2.148 2.182S31.71 44 32.908 44z" fill="#BAE9F1"/><defs><linearGradient id="paint0_linear_502_67" x1="33" y1="0" x2="52.104" y2="87.414" gradientUnits="userSpaceOnUse"><stop stop-color="#2C4262"/><stop offset="1" stop-color="#202F45"/></linearGradient><linearGradient id="paint1_linear_502_67" x1="33" y1="0" x2="33" y2="64.5" gradientUnits="userSpaceOnUse"><stop stop-color="#fff"/><stop offset="1" stop-color="#fff" stop-opacity="0"/></linearGradient></defs></svg>