<svg width="66" height="65" fill="none" xmlns="http://www.w3.org/2000/svg"><g opacity=".1"><rect x=".75" y=".75" width="64.5" height="63" rx="9.75" fill="#D9D9D9"/><rect x=".75" y=".75" width="64.5" height="63" rx="9.75" fill="url(#paint0_linear_508_187)"/><rect x=".75" y=".75" width="64.5" height="63" rx="9.75" stroke="url(#paint1_linear_508_187)" stroke-width="1.5"/></g><path d="M24.435 20v2.174h-3.479l1.385 6.522h-.08c-.652 0-1.087.434-1.087 1.087 0 .652.435 1.087 1.087 1.087h.12l-1.107 7.608h-.1c-.652 0-1.087.435-1.087 1.087 0 .348.13.626.343.818L19 42.499V45h13.152v-2.5l-1.474-2.181c.186-.207.285-.476.278-.754 0-.652-.434-1.087-1.086-1.087h-.12l-1.175-7.608h.208c.652 0 1.087-.435 1.087-1.087 0-.653-.435-1.087-1.087-1.087h-.055l1.468-6.522h-3.587V20h-2.174zm-.87 4.348h3.913l-.978 4.348h-1.956l-.979-4.348zm12.826 1.087v6.956l.979.979-.838 5.108h-.14c-.653 0-1.088.435-1.088 1.087 0 .348.13.626.344.818l-1.43 2.116V45H47.37v-2.5l-1.474-2.181a1.09 1.09 0 00.278-.754c0-.652-.435-1.087-1.087-1.087h-.14l-.838-5.108.978-.979v-6.956h-2.174v2.174h-1.087v-2.174h-2.174v2.174h-1.087v-2.174h-2.174zm2.174 4.348h4.348v1.739l-1.196 1.195.979 5.761h-3.913l.978-5.76-1.196-1.196v-1.74zM24.652 30.87H26.5l1.087 7.608h-4.022l1.087-7.608zm-1.848 9.782h5.435l1.413 2.174h-8.26l1.412-2.174zm15.326 0h5.326l1.414 2.174h-8.261l1.521-2.174z" fill="#BAE9F1"/><defs><linearGradient id="paint0_linear_508_187" x1="33" y1="0" x2="52.104" y2="87.414" gradientUnits="userSpaceOnUse"><stop stop-color="#2C4262"/><stop offset="1" stop-color="#202F45"/></linearGradient><linearGradient id="paint1_linear_508_187" x1="33" y1="0" x2="33" y2="64.5" gradientUnits="userSpaceOnUse"><stop stop-color="#fff"/><stop offset="1" stop-color="#fff" stop-opacity="0"/></linearGradient></defs></svg>