<svg width="66" height="65" fill="none" xmlns="http://www.w3.org/2000/svg"><g opacity=".1"><rect x=".75" y=".75" width="64.5" height="63" rx="9.75" fill="#D9D9D9"/><rect x=".75" y=".75" width="64.5" height="63" rx="9.75" fill="url(#paint0_linear_508_177)"/><rect x=".75" y=".75" width="64.5" height="63" rx="9.75" stroke="url(#paint1_linear_508_177)" stroke-width="1.5"/></g><path d="M26.813 31.625c-1.33 0-2.464-.47-3.404-1.41-.94-.939-1.409-2.073-1.409-3.402 0-1.33.47-2.464 1.41-3.404.939-.94 2.073-1.409 3.402-1.409 1.33 0 2.464.47 3.404 1.41.94.939 1.409 2.073 1.409 3.402 0 1.33-.47 2.464-1.41 3.404-.939.94-2.073 1.409-3.402 1.409zm0-2.75c.572 0 1.06-.2 1.461-.602.402-.402.602-.889.601-1.46 0-.573-.2-1.06-.602-1.462a1.984 1.984 0 00-1.46-.601c-.573 0-1.06.2-1.462.602a1.984 1.984 0 00-.601 1.46c0 .573.2 1.06.602 1.462.402.402.889.602 1.46.601zM39.188 44c-1.33 0-2.464-.47-3.404-1.41-.94-.939-1.409-2.073-1.409-3.403 0-1.329.47-2.463 1.41-3.403.939-.94 2.073-1.409 3.403-1.409 1.329 0 2.463.47 3.403 1.41.94.939 1.409 2.073 1.409 3.403 0 1.329-.47 2.463-1.41 3.403-.939.94-2.073 1.409-3.403 1.409zm0-2.75c.572 0 1.06-.2 1.461-.602.402-.402.602-.889.601-1.46 0-.573-.2-1.06-.602-1.462a1.984 1.984 0 00-1.46-.601c-.573 0-1.06.2-1.462.602a1.984 1.984 0 00-.601 1.46c0 .573.2 1.06.602 1.462.402.402.889.602 1.46.601zm-14.3 1.788a1.361 1.361 0 11-1.925-1.925l18.15-18.15a1.361 1.361 0 111.925 1.925l-18.15 18.15z" fill="#BAE9F1"/><defs><linearGradient id="paint0_linear_508_177" x1="33" y1="0" x2="52.104" y2="87.414" gradientUnits="userSpaceOnUse"><stop stop-color="#2C4262"/><stop offset="1" stop-color="#202F45"/></linearGradient><linearGradient id="paint1_linear_508_177" x1="33" y1="0" x2="33" y2="64.5" gradientUnits="userSpaceOnUse"><stop stop-color="#fff"/><stop offset="1" stop-color="#fff" stop-opacity="0"/></linearGradient></defs></svg>