<svg width="66" height="65" fill="none" xmlns="http://www.w3.org/2000/svg"><g opacity=".1"><rect x=".75" y=".75" width="64.5" height="63" rx="9.75" fill="#D9D9D9"/><rect x=".75" y=".75" width="64.5" height="63" rx="9.75" fill="url(#paint0_linear_504_85)"/><rect x=".75" y=".75" width="64.5" height="63" rx="9.75" stroke="url(#paint1_linear_504_85)" stroke-width="1.5"/></g><path d="M24 42.79v-2.422c0-1.284.534-2.515 1.484-3.424a5.189 5.189 0 013.583-1.418h3.8m3.8 8.474L43 37.947m0 0v5.448m0-5.448h-5.7M26.533 25.842c0 1.284.534 2.516 1.484 3.424a5.188 5.188 0 003.583 1.418c1.344 0 2.633-.51 3.583-1.418a4.736 4.736 0 001.484-3.424 4.736 4.736 0 00-1.484-3.424A5.188 5.188 0 0031.6 21c-1.344 0-2.633.51-3.583 1.418a4.736 4.736 0 00-1.484 3.424z" stroke="#BAE9F1" stroke-width="2.7" stroke-linecap="round" stroke-linejoin="round"/><defs><linearGradient id="paint0_linear_504_85" x1="33" y1="0" x2="52.104" y2="87.414" gradientUnits="userSpaceOnUse"><stop stop-color="#2C4262"/><stop offset="1" stop-color="#202F45"/></linearGradient><linearGradient id="paint1_linear_504_85" x1="33" y1="0" x2="33" y2="64.5" gradientUnits="userSpaceOnUse"><stop stop-color="#fff"/><stop offset="1" stop-color="#fff" stop-opacity="0"/></linearGradient></defs></svg>