<svg width="66" height="65" fill="none" xmlns="http://www.w3.org/2000/svg"><g opacity=".1"><rect x=".75" y=".75" width="64.5" height="63" rx="9.75" fill="#D9D9D9"/><rect x=".75" y=".75" width="64.5" height="63" rx="9.75" fill="url(#paint0_linear_502_68)"/><rect x=".75" y=".75" width="64.5" height="63" rx="9.75" stroke="url(#paint1_linear_502_68)" stroke-width="1.5"/></g><path d="M30.343 23.436h0c-.068.195-.1.515-.093.845.007.33.053.652.13.848h0a2.794 2.794 0 001.917 1.7c.691.172 1.473.078 2.057-.244.172-.095.39-.268.591-.464.203-.197.38-.408.478-.574.33-.566.427-1.324.25-1.993-.221-.843-.884-1.549-1.749-1.857a3.142 3.142 0 00-.74-.127c-.29-.02-.573-.015-.743.021l-2.098 1.845zm0 0a2.877 2.877 0 012.098-1.845l-2.098 1.845zm-.818 3.548c-.041.01-.09.023-.143.034h0a2.243 2.243 0 00-.6.258c-1.404.88-1.404 2.82-.002 3.7.325.204.855.354 1.249.354h.096l-.02.196c-.117 1.189-.292 2.076-.58 2.945-.355 1.068-1.04 2.327-1.567 2.893a.764.764 0 01-.182.157.68.68 0 01-.22.067l.017.099-.017-.099c-1.366.242-2.195 1.668-1.698 2.938h0l.07.18-.264.253a2.41 2.41 0 00-.719 1.31h0c-.035.199-.052.733-.043 1.3l.1-.003-.1.002c.005.263.009.465.017.622.01.157.023.277.049.373.027.1.067.173.127.24.056.063.129.117.211.177h0c.02.014.045.032.087.047a.735.735 0 00.16.03c.142.015.394.024.87.03.956.013 2.831.013 6.577.013s5.62 0 6.576-.013c.477-.006.73-.015.871-.03a.735.735 0 00.16-.03.303.303 0 00.086-.047h0c.083-.06.156-.114.212-.177.06-.066.1-.14.127-.24.026-.096.04-.216.049-.373.008-.157.012-.36.016-.622.01-.566-.007-1.1-.042-1.3a2.408 2.408 0 00-.722-1.312l-.266-.256.072-.178c.508-1.252-.331-2.692-1.695-2.934a.68.68 0 01-.22-.067.764.764 0 01-.182-.157c-.527-.566-1.213-1.827-1.564-2.888l-.095.031.095-.031c-.301-.91-.46-1.714-.584-2.95 0 0 0 0 0 0l-.019-.196h.096c.394 0 .924-.15 1.249-.353 1.402-.88 1.402-2.82-.001-3.701a2.269 2.269 0 00-.6-.258h0a4.418 4.418 0 01-.141-.032l.007-.01c.048-.072.114-.168.188-.273h0a4.76 4.76 0 00.688-1.498l-.097-.024.097.024c.06-.238.088-.608.088-.97s-.028-.732-.088-.97l-.097.024.097-.024a4.453 4.453 0 00-3.27-3.24 5.026 5.026 0 00-.876-.115 4.596 4.596 0 00-.86.021c-1.785.27-3.215 1.52-3.687 3.226l.096.026-.096-.026c-.09.321-.113.552-.113 1.078s.023.757.113 1.078c.138.5.402 1.046.703 1.456l.154.215zm.167 1.689h0c.052-.031.095-.056.534-.069A132.1 132.1 0 0133 28.591c1.542 0 2.341 0 2.774.013.439.013.482.038.534.069h0c.25.148.336.453.202.705h0a.62.62 0 01-.202.203h0c-.052.03-.095.056-.532.068-.432.012-1.229.013-2.766.013h-.34c-1.532 0-2.291 0-2.69-.033-.214-.019-.305-.046-.354-.077-.04-.024-.058-.052-.098-.117l-.02-.034h0a.52.52 0 01.184-.728zm-2.014 10.615h0c.024-.015.048-.03.152-.041.108-.013.294-.022.638-.028.686-.013 1.986-.013 4.522-.013h.895c2.267 0 3.396-.001 3.977.03.332.019.466.047.53.08.039.02.048.036.074.083l.041.068h0a.518.518 0 010 .55h0c-.018.027-.03.05-.04.067-.027.046-.036.062-.075.082-.064.034-.198.062-.53.08-.58.032-1.707.032-3.97.032h-1.784c-2.263 0-3.39 0-3.97-.032-.332-.018-.466-.047-.53-.08-.039-.02-.048-.036-.075-.082-.01-.017-.022-.04-.04-.068h0a.52.52 0 01.185-.728zm11.717 3.719l.001.45H26.604v-.45c.001-.242.005-.378.02-.474a.558.558 0 01.081-.221.857.857 0 01.276-.268s0 0 0 0l.178-.097h11.682l.178.097s0 0 0 0a.856.856 0 01.276.268.557.557 0 01.081.221c.015.096.019.232.02.474zm-3.493-5.74l.086-.053-.086.053c.06.096.114.187.155.257l-.09.002-.691.006a380.027 380.027 0 01-5.334-.008l.155-.258-.085-.052.085.052c.913-1.492 1.555-3.6 1.675-5.504l.028-.432h2.4l.027.425c.12 1.91.762 4.023 1.675 5.511zm-8.494 2.802c.03.046.047.086.073.119.156.203.595.19 5.519.19s5.363.013 5.52-.19c.025-.033.043-.073.072-.119H27.408z" fill="#BAE9F1" stroke="#BAE9F1" stroke-width=".2"/><defs><linearGradient id="paint0_linear_502_68" x1="33" y1="0" x2="52.104" y2="87.414" gradientUnits="userSpaceOnUse"><stop stop-color="#2C4262"/><stop offset="1" stop-color="#202F45"/></linearGradient><linearGradient id="paint1_linear_502_68" x1="33" y1="0" x2="33" y2="64.5" gradientUnits="userSpaceOnUse"><stop stop-color="#fff"/><stop offset="1" stop-color="#fff" stop-opacity="0"/></linearGradient></defs></svg>