<svg width="66" height="65" fill="none" xmlns="http://www.w3.org/2000/svg"><g opacity=".1"><rect x=".75" y="1.269" width="64.5" height="62.871" rx="9.75" fill="#D9D9D9"/><rect x=".75" y="1.269" width="64.5" height="62.871" rx="9.75" fill="url(#paint0_linear_502_66)"/><rect x=".75" y="1.269" width="64.5" height="62.871" rx="9.75" stroke="url(#paint1_linear_502_66)" stroke-width="1.5"/></g><mask id="a" maskUnits="userSpaceOnUse" x="21" y="19.479" width="24" height="26" fill="#000"><path fill="#fff" d="M21 19.479h24v26H21z"/><path fill-rule="evenodd" clip-rule="evenodd" d="M31.809 20.479h2.382c2.074 0 3.717 0 5.002.17 1.322.176 2.393.546 3.238 1.38.844.834 1.218 1.89 1.396 3.196.173 1.27.173 2.891.173 4.939v4.58c0 2.048 0 3.67-.173 4.94-.178 1.305-.552 2.362-1.396 3.197-.845.833-1.916 1.203-3.238 1.379-1.286.17-2.928.17-5.002.17H31.81c-2.074 0-3.717 0-5.002-.17-1.322-.176-2.393-.546-3.238-1.38-.844-.834-1.218-1.89-1.396-3.197C22 38.413 22 36.793 22 34.745v-4.581c0-2.048 0-3.67.173-4.939.178-1.305.552-2.362 1.396-3.197.845-.833 1.916-1.203 3.238-1.379 1.286-.17 2.928-.17 5.002-.17zm-4.777 1.826c-1.135.15-1.79.434-2.268.905-.476.471-.763 1.117-.915 2.238-.156 1.145-.158 2.654-.158 4.778v4.456c0 2.125.002 3.634.158 4.78.152 1.12.439 1.765.916 2.237.477.471 1.132.754 2.267.904 1.16.154 2.687.156 4.839.156h2.256c2.152 0 3.68-.002 4.84-.156 1.134-.15 1.788-.433 2.266-.904.477-.471.763-1.118.916-2.238.155-1.145.158-2.654.158-4.779v-4.456c0-2.124-.003-3.633-.158-4.779-.153-1.12-.44-1.766-.916-2.237-.478-.471-1.132-.754-2.267-.905-1.159-.153-2.687-.155-4.839-.155h-2.256c-2.152 0-3.678.002-4.84.155zm.609 7.921a.83.83 0 01.248-.59.852.852 0 01.598-.245h9.026a.85.85 0 01.598.245.83.83 0 010 1.181.851.851 0 01-.598.245h-9.026a.851.851 0 01-.598-.245.83.83 0 01-.248-.59zm0 4.456a.83.83 0 01.248-.59.851.851 0 01.598-.245h5.641c.225 0 .44.088.599.245a.83.83 0 010 1.181.852.852 0 01-.599.245h-5.64a.851.851 0 01-.6-.245.83.83 0 01-.247-.59z"/></mask><path fill-rule="evenodd" clip-rule="evenodd" d="M31.809 20.479h2.382c2.074 0 3.717 0 5.002.17 1.322.176 2.393.546 3.238 1.38.844.834 1.218 1.89 1.396 3.196.173 1.27.173 2.891.173 4.939v4.58c0 2.048 0 3.67-.173 4.94-.178 1.305-.552 2.362-1.396 3.197-.845.833-1.916 1.203-3.238 1.379-1.286.17-2.928.17-5.002.17H31.81c-2.074 0-3.717 0-5.002-.17-1.322-.176-2.393-.546-3.238-1.38-.844-.834-1.218-1.89-1.396-3.197C22 38.413 22 36.793 22 34.745v-4.581c0-2.048 0-3.67.173-4.939.178-1.305.552-2.362 1.396-3.197.845-.833 1.916-1.203 3.238-1.379 1.286-.17 2.928-.17 5.002-.17zm-4.777 1.826c-1.135.15-1.79.434-2.268.905-.476.471-.763 1.117-.915 2.238-.156 1.145-.158 2.654-.158 4.778v4.456c0 2.125.002 3.634.158 4.78.152 1.12.439 1.765.916 2.237.477.471 1.132.754 2.267.904 1.16.154 2.687.156 4.839.156h2.256c2.152 0 3.68-.002 4.84-.156 1.134-.15 1.788-.433 2.266-.904.477-.471.763-1.118.916-2.238.155-1.145.158-2.654.158-4.779v-4.456c0-2.124-.003-3.633-.158-4.779-.153-1.12-.44-1.766-.916-2.237-.478-.471-1.132-.754-2.267-.905-1.159-.153-2.687-.155-4.839-.155h-2.256c-2.152 0-3.678.002-4.84.155zm.609 7.921a.83.83 0 01.248-.59.852.852 0 01.598-.245h9.026a.85.85 0 01.598.245.83.83 0 010 1.181.851.851 0 01-.598.245h-9.026a.851.851 0 01-.598-.245.83.83 0 01-.248-.59zm0 4.456a.83.83 0 01.248-.59.851.851 0 01.598-.245h5.641c.225 0 .44.088.599.245a.83.83 0 010 1.181.852.852 0 01-.599.245h-5.64a.851.851 0 01-.6-.245.83.83 0 01-.247-.59z" fill="#BAE9F1"/><path clip-rule="evenodd" d="M31.809 20.479h2.382c2.074 0 3.717 0 5.002.17 1.322.176 2.393.546 3.238 1.38.844.834 1.218 1.89 1.396 3.196.173 1.27.173 2.891.173 4.939v4.58c0 2.048 0 3.67-.173 4.94-.178 1.305-.552 2.362-1.396 3.197-.845.833-1.916 1.203-3.238 1.379-1.286.17-2.928.17-5.002.17H31.81c-2.074 0-3.717 0-5.002-.17-1.322-.176-2.393-.546-3.238-1.38-.844-.834-1.218-1.89-1.396-3.197C22 38.413 22 36.793 22 34.745v-4.581c0-2.048 0-3.67.173-4.939.178-1.305.552-2.362 1.396-3.197.845-.833 1.916-1.203 3.238-1.379 1.286-.17 2.928-.17 5.002-.17zm-4.777 1.826c-1.135.15-1.79.434-2.268.905-.476.471-.763 1.117-.915 2.238-.156 1.145-.158 2.654-.158 4.778v4.456c0 2.125.002 3.634.158 4.78.152 1.12.439 1.765.916 2.237.477.471 1.132.754 2.267.904 1.16.154 2.687.156 4.839.156h2.256c2.152 0 3.68-.002 4.84-.156 1.134-.15 1.788-.433 2.266-.904.477-.471.763-1.118.916-2.238.155-1.145.158-2.654.158-4.779v-4.456c0-2.124-.003-3.633-.158-4.779-.153-1.12-.44-1.766-.916-2.237-.478-.471-1.132-.754-2.267-.905-1.159-.153-2.687-.155-4.839-.155h-2.256c-2.152 0-3.678.002-4.84.155zm.609 7.921a.83.83 0 01.248-.59.852.852 0 01.598-.245h9.026a.85.85 0 01.598.245.83.83 0 010 1.181.851.851 0 01-.598.245h-9.026a.851.851 0 01-.598-.245.83.83 0 01-.248-.59zm0 4.456a.83.83 0 01.248-.59.851.851 0 01.598-.245h5.641c.225 0 .44.088.599.245a.83.83 0 010 1.181.852.852 0 01-.599.245h-5.64a.851.851 0 01-.6-.245.83.83 0 01-.247-.59z" stroke="#BAE9F1" stroke-width=".8" mask="url(#a)"/><defs><linearGradient id="paint0_linear_502_66" x1="33" y1=".519" x2="52.031" y2="87.773" gradientUnits="userSpaceOnUse"><stop stop-color="#2C4262"/><stop offset="1" stop-color="#202F45"/></linearGradient><linearGradient id="paint1_linear_502_66" x1="33" y1=".519" x2="33" y2="64.889" gradientUnits="userSpaceOnUse"><stop stop-color="#fff"/><stop offset="1" stop-color="#fff" stop-opacity="0"/></linearGradient></defs></svg>