<svg width="66" height="65" fill="none" xmlns="http://www.w3.org/2000/svg"><g opacity=".1"><rect x=".75" y=".75" width="64.5" height="63" rx="9.75" fill="#D9D9D9"/><rect x=".75" y=".75" width="64.5" height="63" rx="9.75" fill="url(#paint0_linear_542_73)"/><rect x=".75" y=".75" width="64.5" height="63" rx="9.75" stroke="url(#paint1_linear_542_73)" stroke-width="1.5"/></g><path fill-rule="evenodd" clip-rule="evenodd" d="M30.781 20.105c-.128.06-2.547 1.584-5.376 3.387-4.9 3.121-5.15 3.289-5.274 3.534-.13.255-.131.281-.131 2.733 0 2.451.001 2.478.13 2.734a.807.807 0 00.393.394c.332.17.607.143.998-.1a2.93 2.93 0 01.312-.18c.013 0 .03 1.865.04 4.143l.016 4.142.133.29c.175.38.595.803.966.971.29.131.343.135 2.446.151 2.142.017 2.152.016 2.412-.116.282-.143.523-.514.523-.802 0-.288-.241-.658-.52-.8-.254-.127-.304-.13-2.195-.13H23.72v-9.058l3.676-2.342c2.021-1.289 3.715-2.343 3.763-2.343.048 0 .636.35 1.308.779 1.877 1.198 1.81 1.162 2.153 1.162.821 0 1.209-1 .6-1.549-.216-.196-3.532-2.295-3.776-2.39a.801.801 0 00-.422-.048c-.125.023-1.868 1.097-4.528 2.79a2891.667 2891.667 0 00-4.48 2.854l-.154.1v-2.483l4.621-2.936c2.542-1.615 4.655-2.933 4.697-2.93.041.004 2.245 1.387 4.896 3.075 2.65 1.688 4.908 3.107 5.016 3.152.409.172.93-.053 1.12-.483a.894.894 0 00-.062-.875c-.075-.123-1.567-1.103-5.213-3.424-2.81-1.79-5.223-3.312-5.365-3.384-.31-.159-.484-.163-.789-.018zM37 29.329c-3.827.386-6.804 3.065-7.535 6.78-.18.917-.18 2.196 0 3.112.677 3.444 3.283 6.011 6.78 6.679.706.134 2.126.133 2.876-.002 3.053-.553 5.613-2.807 6.51-5.733.283-.922.369-1.506.369-2.5 0-2.047-.642-3.802-1.983-5.422-1.162-1.403-3.042-2.485-4.867-2.8-.535-.093-1.733-.156-2.15-.114zm-.497 1.915c-.49.089-1.327.37-1.77.593-1.223.62-2.404 1.838-2.966 3.062-.469 1.021-.64 1.917-.592 3.08.036.839.15 1.37.466 2.157.621 1.546 2.012 2.937 3.558 3.558.969.39 1.28.446 2.47.446 1.188 0 1.5-.057 2.47-.446 1.545-.62 2.936-2.012 3.556-3.558.39-.97.446-1.282.446-2.47 0-1.19-.057-1.502-.446-2.47-.547-1.364-1.767-2.688-3.092-3.358a7.817 7.817 0 00-1.816-.598c-.604-.105-1.692-.103-2.284.004zm3.121 4.195c-.188.078-.405.335-1.37 1.62l-1.145 1.526-.636-.628c-.487-.482-.693-.645-.882-.702-.675-.2-1.322.447-1.123 1.123.06.2.264.44 1.1 1.285 1.251 1.268 1.444 1.38 1.989 1.162.213-.085.404-.315 1.725-2.075.817-1.088 1.523-2.077 1.57-2.196.162-.411-.051-.91-.468-1.1-.296-.134-.464-.138-.76-.015z" fill="#BAE9F1"/><defs><linearGradient id="paint0_linear_542_73" x1="33" y1="0" x2="52.104" y2="87.414" gradientUnits="userSpaceOnUse"><stop stop-color="#2C4262"/><stop offset="1" stop-color="#202F45"/></linearGradient><linearGradient id="paint1_linear_542_73" x1="33" y1="0" x2="33" y2="64.5" gradientUnits="userSpaceOnUse"><stop stop-color="#fff"/><stop offset="1" stop-color="#fff" stop-opacity="0"/></linearGradient></defs></svg>