<svg width="66" height="65" fill="none" xmlns="http://www.w3.org/2000/svg"><g opacity=".1"><rect x=".75" y=".75" width="64.5" height="63" rx="9.75" fill="#D9D9D9"/><rect x=".75" y=".75" width="64.5" height="63" rx="9.75" fill="url(#paint0_linear_508_186)"/><rect x=".75" y=".75" width="64.5" height="63" rx="9.75" stroke="url(#paint1_linear_508_186)" stroke-width="1.5"/></g><path d="M33.876 20a1.087 1.087 0 00-.843.401l-.084.063a9.147 9.147 0 00-9.105 2.256 9.003 9.003 0 00-2.523 8.007l-.022.022-1.392 1.382a3.062 3.062 0 000 4.352 3.105 3.105 0 002.606.873 3.094 3.094 0 002.736 2.265 3.096 3.096 0 002.93 2.822c.039.736.34 1.46.905 2.02a3.113 3.113 0 004.05.287l.562.558a3.126 3.126 0 004.4 0 3.087 3.087 0 00.9-1.916 3.093 3.093 0 002.82-2.807 3.09 3.09 0 002.717-2.33 3.103 3.103 0 003.229-1.878 3.064 3.064 0 00-.671-3.354l-1.21-1.205.25-.968a8.65 8.65 0 00-.764-6.252 8.748 8.748 0 00-7.706-4.592h-2.335c-.1-.005-.2-.006-.299-.006h-1.15zm4.25 7.186l5.034 5 .004.007.02.02 2.362 2.346a.9.9 0 010 1.279.915.915 0 01-1.287 0l-2.362-2.347a1.099 1.099 0 00-1.546 0l-.023.025a1.081 1.081 0 000 1.535l1.84 1.828a.902.902 0 010 1.282.916.916 0 01-1.19.084 1.098 1.098 0 00-1.435.104 1.081 1.081 0 00-.09 1.427.901.901 0 01-.08 1.19.915.915 0 01-1.206.072 1.1 1.1 0 00-1.446.083 1.081 1.081 0 00-.093 1.437.916.916 0 01-.078 1.212.93.93 0 01-1.308 0l-.54-.536.152-.153a3.064 3.064 0 000-4.35 3.095 3.095 0 00-2.034-.898 3.094 3.094 0 00-2.84-2.912 3.057 3.057 0 00-.896-1.924 3.103 3.103 0 00-2.606-.874 3.1 3.1 0 00-3.077-2.274 6.836 6.836 0 011.989-5.594 6.927 6.927 0 015.203-2.005l-2.175 1.646a3.362 3.362 0 00-.64 4.727 3.39 3.39 0 004.735.64l2.745-2.079 2.868.002zm-8.393-1.55l4.562-3.456h.732c.09 0 .181.002.272.007h2.362a6.568 6.568 0 015.787 3.444 6.468 6.468 0 01.645 4.352l-4.666-4.644a1.09 1.09 0 00-.783-.333h-3.75a1.09 1.09 0 00-.659.22l-3.037 2.301a1.21 1.21 0 01-1.689-.228 1.182 1.182 0 01.226-1.664h-.002zM24.86 37.192a.903.903 0 010-1.278l1.39-1.38a.916.916 0 011.288 0 .9.9 0 01.011 1.265l-.011.013-1.391 1.38-.013.013a.914.914 0 01-1.274-.011v-.002zm-.714-4.894a.897.897 0 01-.015 1.264l-1.39 1.384a.916.916 0 01-1.485-.293.901.901 0 01.197-.986l1.393-1.382a.915.915 0 011.287 0l.013.013zm7.771 10.628a.914.914 0 01-1.484-.293.902.902 0 01.197-.985l1.39-1.382a.915.915 0 011.485.293.9.9 0 01-.197.985l-1.39 1.382zm-2.936-2.917a.914.914 0 01-1.288 0 .901.901 0 01-.013-1.268l.013-.011 1.39-1.382.012-.013a.916.916 0 011.473.306.901.901 0 01-.197.986l-1.39 1.382z" fill="#BAE9F1"/><defs><linearGradient id="paint0_linear_508_186" x1="33" y1="0" x2="52.104" y2="87.414" gradientUnits="userSpaceOnUse"><stop stop-color="#2C4262"/><stop offset="1" stop-color="#202F45"/></linearGradient><linearGradient id="paint1_linear_508_186" x1="33" y1="0" x2="33" y2="64.5" gradientUnits="userSpaceOnUse"><stop stop-color="#fff"/><stop offset="1" stop-color="#fff" stop-opacity="0"/></linearGradient></defs></svg>