<svg width="66" height="65" fill="none" xmlns="http://www.w3.org/2000/svg"><g opacity=".1"><rect x=".75" y="1.267" width="64.5" height="62.871" rx="9.75" fill="#D9D9D9"/><rect x=".75" y="1.267" width="64.5" height="62.871" rx="9.75" fill="url(#paint0_linear_502_70)"/><rect x=".75" y="1.267" width="64.5" height="62.871" rx="9.75" stroke="url(#paint1_linear_502_70)" stroke-width="1.5"/></g><g clip-path="url(#clip0_502_70)"><mask id="a" maskUnits="userSpaceOnUse" x="25" y="18.479" width="16" height="29" fill="#000"><path fill="#fff" d="M25 18.479h16v29H25z"/><path d="M32.839 46.424c-.437 0-.803-.143-1.098-.43a1.422 1.422 0 01-.442-1.067v-1.721c-1.155-.25-2.17-.686-3.042-1.31-.873-.624-1.578-1.497-2.117-2.62-.18-.35-.186-.717-.019-1.105.167-.387.469-.667.904-.84.36-.15.732-.144 1.117.019.385.162.68.43.885.803.436.749.988 1.316 1.656 1.703.667.386 1.488.58 2.464.58 1.052 0 1.944-.23 2.675-.693.73-.462 1.097-1.179 1.098-2.15 0-.874-.282-1.566-.847-2.077-.565-.511-1.874-1.091-3.927-1.741-2.208-.674-3.722-1.479-4.543-2.415-.822-.936-1.233-2.077-1.233-3.424 0-1.621.54-2.881 1.618-3.78 1.078-.898 2.181-1.41 3.31-1.534v-1.646c0-.425.149-.78.444-1.068a1.51 1.51 0 011.095-.43c.437 0 .803.144 1.098.432.296.287.443.642.442 1.066v1.646c.976.15 1.823.456 2.541.918a6.162 6.162 0 011.771 1.702c.231.324.277.686.136 1.085-.14.4-.43.686-.867.861-.36.15-.732.156-1.117.02-.385-.137-.744-.38-1.078-.731a3.419 3.419 0 00-1.175-.804c-.45-.187-1.007-.28-1.674-.281-1.13 0-1.989.243-2.58.73-.59.487-.884 1.092-.883 1.814 0 .824.385 1.473 1.155 1.947s2.104.973 4.004 1.497c1.77.499 3.112 1.291 4.024 2.377A5.67 5.67 0 0140 37.517c0 1.772-.539 3.119-1.617 4.042-1.078.923-2.413 1.497-4.004 1.722v1.646c0 .425-.148.78-.444 1.068a1.51 1.51 0 01-1.096.43z"/></mask><path d="M32.839 46.424c-.437 0-.803-.143-1.098-.43a1.422 1.422 0 01-.442-1.067v-1.721c-1.155-.25-2.17-.686-3.042-1.31-.873-.624-1.578-1.497-2.117-2.62-.18-.35-.186-.717-.019-1.105.167-.387.469-.667.904-.84.36-.15.732-.144 1.117.019.385.162.68.43.885.803.436.749.988 1.316 1.656 1.703.667.386 1.488.58 2.464.58 1.052 0 1.944-.23 2.675-.693.73-.462 1.097-1.179 1.098-2.15 0-.874-.282-1.566-.847-2.077-.565-.511-1.874-1.091-3.927-1.741-2.208-.674-3.722-1.479-4.543-2.415-.822-.936-1.233-2.077-1.233-3.424 0-1.621.54-2.881 1.618-3.78 1.078-.898 2.181-1.41 3.31-1.534v-1.646c0-.425.149-.78.444-1.068a1.51 1.51 0 011.095-.43c.437 0 .803.144 1.098.432.296.287.443.642.442 1.066v1.646c.976.15 1.823.456 2.541.918a6.162 6.162 0 011.771 1.702c.231.324.277.686.136 1.085-.14.4-.43.686-.867.861-.36.15-.732.156-1.117.02-.385-.137-.744-.38-1.078-.731a3.419 3.419 0 00-1.175-.804c-.45-.187-1.007-.28-1.674-.281-1.13 0-1.989.243-2.58.73-.59.487-.884 1.092-.883 1.814 0 .824.385 1.473 1.155 1.947s2.104.973 4.004 1.497c1.77.499 3.112 1.291 4.024 2.377A5.67 5.67 0 0140 37.517c0 1.772-.539 3.119-1.617 4.042-1.078.923-2.413 1.497-4.004 1.722v1.646c0 .425-.148.78-.444 1.068a1.51 1.51 0 01-1.096.43z" fill="#BAE9F1"/><path d="M32.839 46.424c-.437 0-.803-.143-1.098-.43a1.422 1.422 0 01-.442-1.067v-1.721c-1.155-.25-2.17-.686-3.042-1.31-.873-.624-1.578-1.497-2.117-2.62-.18-.35-.186-.717-.019-1.105.167-.387.469-.667.904-.84.36-.15.732-.144 1.117.019.385.162.68.43.885.803.436.749.988 1.316 1.656 1.703.667.386 1.488.58 2.464.58 1.052 0 1.944-.23 2.675-.693.73-.462 1.097-1.179 1.098-2.15 0-.874-.282-1.566-.847-2.077-.565-.511-1.874-1.091-3.927-1.741-2.208-.674-3.722-1.479-4.543-2.415-.822-.936-1.233-2.077-1.233-3.424 0-1.621.54-2.881 1.618-3.78 1.078-.898 2.181-1.41 3.31-1.534v-1.646c0-.425.149-.78.444-1.068a1.51 1.51 0 011.095-.43c.437 0 .803.144 1.098.432.296.287.443.642.442 1.066v1.646c.976.15 1.823.456 2.541.918a6.162 6.162 0 011.771 1.702c.231.324.277.686.136 1.085-.14.4-.43.686-.867.861-.36.15-.732.156-1.117.02-.385-.137-.744-.38-1.078-.731a3.419 3.419 0 00-1.175-.804c-.45-.187-1.007-.28-1.674-.281-1.13 0-1.989.243-2.58.73-.59.487-.884 1.092-.883 1.814 0 .824.385 1.473 1.155 1.947s2.104.973 4.004 1.497c1.77.499 3.112 1.291 4.024 2.377A5.67 5.67 0 0140 37.517c0 1.772-.539 3.119-1.617 4.042-1.078.923-2.413 1.497-4.004 1.722v1.646c0 .425-.148.78-.444 1.068a1.51 1.51 0 01-1.096.43z" stroke="#BAE9F1" stroke-width=".2" mask="url(#a)"/></g><defs><linearGradient id="paint0_linear_502_70" x1="33" y1=".517" x2="52.031" y2="87.771" gradientUnits="userSpaceOnUse"><stop stop-color="#2C4262"/><stop offset="1" stop-color="#202F45"/></linearGradient><linearGradient id="paint1_linear_502_70" x1="33" y1=".517" x2="33" y2="64.887" gradientUnits="userSpaceOnUse"><stop stop-color="#fff"/><stop offset="1" stop-color="#fff" stop-opacity="0"/></linearGradient><clipPath id="clip0_502_70"><path fill="#fff" transform="translate(26 19)" d="M0 0h14v28H0z"/></clipPath></defs></svg>