<svg width="66" height="65" fill="none" xmlns="http://www.w3.org/2000/svg"><g opacity=".1"><rect x=".75" y="1.267" width="64.5" height="62.871" rx="9.75" fill="#D9D9D9"/><rect x=".75" y="1.267" width="64.5" height="62.871" rx="9.75" fill="url(#paint0_linear_502_71)"/><rect x=".75" y="1.267" width="64.5" height="62.871" rx="9.75" stroke="url(#paint1_linear_502_71)" stroke-width="1.5"/></g><path d="M38.21 35.396l.06.08.603.797s0 0 0 0a3.588 3.588 0 01-.001 4.333h0l-.604.796-.06.08-.08-.06-1.595-1.204-.08-.06.06-.08.604-.797 1.093-3.885zm0 0l-.08.06m.08-.06l-.08.06m0 0l-1.595 1.204-.08.06.06.08.602.797h0m1.013-2.14l-1.013 2.14m0 0a1.395 1.395 0 010 1.684v-1.684zm3.946-4.225l-.06-.08-.08.06-1.596 1.203-.08.06.06.08.603.797a4.884 4.884 0 01-.002 5.896h0l-.603.797-.06.08.08.06 1.595 1.203.08.06.06-.08.603-.796s0 0 0 0a7.077 7.077 0 00.003-8.543h0l-.603-.797zm-5.913 7.065v-.1h-9.049a3.888 3.888 0 011.141-2.652A3.904 3.904 0 0130 36.545h5.1v-2.196H30c-1.618 0-3.17.64-4.313 1.783a6.082 6.082 0 00-1.787 4.305v2.095h11.25v-2.095zm-4.054-14.874a3.404 3.404 0 014.808 0 3.39 3.39 0 010 4.798 3.403 3.403 0 01-4.808 0 3.39 3.39 0 010-4.799zM29.54 24.01a5.583 5.583 0 000 7.904 5.606 5.606 0 007.92 0 5.583 5.583 0 000-7.904 5.605 5.605 0 00-7.92 0z" fill="#BAE9F1" stroke="#BAE9F1" stroke-width=".2"/><defs><linearGradient id="paint0_linear_502_71" x1="33" y1=".517" x2="52.031" y2="87.771" gradientUnits="userSpaceOnUse"><stop stop-color="#2C4262"/><stop offset="1" stop-color="#202F45"/></linearGradient><linearGradient id="paint1_linear_502_71" x1="33" y1=".517" x2="33" y2="64.887" gradientUnits="userSpaceOnUse"><stop stop-color="#fff"/><stop offset="1" stop-color="#fff" stop-opacity="0"/></linearGradient></defs></svg>