<svg width="66" height="65" viewBox="0 0 66 65" fill="none" xmlns="http://www.w3.org/2000/svg">
<g opacity="0.1">
<rect x="0.75" y="0.75" width="64.5" height="63" rx="9.75" fill="#D9D9D9"/>
<rect x="0.75" y="0.75" width="64.5" height="63" rx="9.75" fill="url(#paint0_linear_508_186)"/>
<rect x="0.75" y="0.75" width="64.5" height="63" rx="9.75" stroke="url(#paint1_linear_508_186)" stroke-width="1.5"/>
</g>
<path d="M33.8761 20.0001C33.7147 20.0001 33.5552 20.0362 33.4095 20.1055C33.2637 20.1749 33.1352 20.2759 33.0333 20.4011L32.949 20.4636C31.369 19.9827 29.6882 19.9386 28.0851 20.3359C26.482 20.7333 25.0164 21.5572 23.8438 22.7203C22.8045 23.7495 22.0316 25.0165 21.592 26.4116C21.1525 27.8067 21.0595 29.2879 21.3212 30.727L21.2994 30.7488L19.9073 32.1307C19.6198 32.4155 19.3916 32.7544 19.2359 33.1279C19.0802 33.5014 19 33.9021 19 34.3067C19 34.7114 19.0802 35.1121 19.2359 35.4856C19.3916 35.859 19.6198 36.198 19.9073 36.4828C20.2454 36.8186 20.6563 37.072 21.1081 37.2235C21.5599 37.3749 22.0405 37.4203 22.5127 37.3561C22.681 37.969 23.0339 38.5151 23.5235 38.9204C24.013 39.3257 24.6155 39.5705 25.2489 39.6215C25.3141 40.3666 25.6468 41.063 26.1856 41.5818C26.7244 42.1005 27.4328 42.4066 28.1799 42.4435C28.2177 43.1788 28.5185 43.9024 29.0837 44.4633C30.1881 45.5619 31.9202 45.6563 33.1336 44.7496L33.6959 45.3076C34.2813 45.8876 35.0719 46.213 35.8959 46.213C36.72 46.213 37.5106 45.8876 38.096 45.3076C38.6336 44.7714 38.9344 44.0899 38.9969 43.3924C39.722 43.3309 40.4022 43.0157 40.9179 42.5022C41.4335 41.9887 41.7515 41.3098 41.8159 40.5849C42.4548 40.5265 43.0595 40.2707 43.5464 39.853C44.0333 39.4354 44.3782 38.8766 44.5333 38.2541C44.9984 38.3099 45.4701 38.2596 45.913 38.1071C46.3559 37.9546 46.7586 37.7038 47.0908 37.3736C47.378 37.0888 47.606 36.7499 47.7616 36.3766C47.9172 36.0032 47.9973 35.6027 47.9973 35.1982C47.9973 34.7937 47.9172 34.3933 47.7616 34.0199C47.606 33.6465 47.378 33.3077 47.0908 33.0229L45.8803 31.8183L46.1303 30.8505C46.671 28.7445 46.3986 26.512 45.3674 24.5977C44.6171 23.208 43.5045 22.0474 42.1478 21.2389C40.7911 20.4305 39.2408 20.0044 37.6615 20.0059H35.3263C35.2266 20.0015 35.1268 19.9996 35.027 20.0001H33.8761ZM38.1265 27.1857L43.1601 32.1859L43.1644 32.1932L43.1848 32.2121L45.5461 34.5589C45.6305 34.6426 45.6974 34.7422 45.7431 34.8519C45.7888 34.9617 45.8123 35.0794 45.8123 35.1982C45.8123 35.3171 45.7888 35.4348 45.7431 35.5445C45.6974 35.6543 45.6305 35.7539 45.5461 35.8376C45.3747 36.0071 45.1434 36.1022 44.9024 36.1022C44.6613 36.1022 44.43 36.0071 44.2586 35.8376L41.8973 33.4908C41.6916 33.2871 41.4138 33.1728 41.1243 33.1728C40.8347 33.1728 40.5569 33.2871 40.3512 33.4908L40.328 33.5155C40.2265 33.616 40.146 33.7357 40.091 33.8675C40.0361 33.9993 40.0078 34.1407 40.0078 34.2835C40.0078 34.4263 40.0361 34.5677 40.091 34.6995C40.146 34.8313 40.2265 34.951 40.328 35.0515L42.1676 36.8795C42.2524 36.9633 42.3197 37.0631 42.3657 37.1731C42.4116 37.2831 42.4353 37.4011 42.4353 37.5203C42.4353 37.6395 42.4116 37.7576 42.3657 37.8676C42.3197 37.9776 42.2524 38.0774 42.1676 38.1611C42.0121 38.3151 41.8065 38.4083 41.5882 38.4238C41.3698 38.4392 41.1532 38.376 40.9775 38.2454C40.766 38.0874 40.5045 38.0108 40.2412 38.0298C39.9778 38.0487 39.73 38.1619 39.5433 38.3486C39.3571 38.5347 39.2452 38.7823 39.2286 39.0451C39.2121 39.3078 39.2919 39.5675 39.4532 39.7756C39.5872 39.9496 39.6531 40.1666 39.6384 40.3857C39.6236 40.6049 39.5294 40.8111 39.3733 40.9657C39.2153 41.1222 39.0058 41.2159 38.7839 41.2292C38.562 41.2426 38.3427 41.1747 38.1672 41.0383C37.9571 40.8745 37.6946 40.7925 37.4287 40.8077C37.1627 40.823 36.9113 40.9344 36.7213 41.1211C36.532 41.3074 36.4178 41.5569 36.4007 41.822C36.3835 42.087 36.4646 42.3491 36.6283 42.5583C36.7656 42.735 36.8334 42.9558 36.819 43.1791C36.8045 43.4024 36.7088 43.6127 36.5498 43.7702C36.3757 43.9423 36.1408 44.0389 35.8959 44.0389C35.6511 44.0389 35.4161 43.9423 35.242 43.7702L34.7015 43.234L34.8541 43.0814C35.1413 42.7966 35.3693 42.4578 35.5249 42.0844C35.6805 41.7111 35.7606 41.3106 35.7606 40.9061C35.7606 40.5016 35.6805 40.1011 35.5249 39.7278C35.3693 39.3544 35.1413 39.0155 34.8541 38.7308C34.3106 38.1897 33.5856 37.8697 32.8197 37.8327C32.7782 37.0862 32.4678 36.3799 31.9458 35.8445C31.4238 35.3092 30.7256 34.981 29.9803 34.9207C29.9208 34.1929 29.6028 33.5104 29.0837 32.9968C28.7456 32.661 28.3347 32.4075 27.8829 32.2561C27.4311 32.1046 26.9505 32.0592 26.4783 32.1234C26.2938 31.4546 25.8903 30.867 25.3323 30.4547C24.7743 30.0424 24.0941 29.8292 23.4006 29.8493C23.2902 28.8272 23.4118 27.7934 23.7562 26.8248C24.1006 25.8562 24.659 24.9778 25.3899 24.2548C26.071 23.5782 26.8852 23.0506 27.781 22.7054C28.6768 22.3602 29.6345 22.2049 30.5935 22.2495L28.4182 23.8959C28.0647 24.1634 27.7676 24.4982 27.544 24.881C27.3204 25.2638 27.1746 25.6871 27.1152 26.1264C27.0558 26.5657 27.0838 27.0124 27.1977 27.4409C27.3116 27.8693 27.5091 28.271 27.7788 28.6229C28.3236 29.333 29.127 29.7989 30.0139 29.9189C30.9008 30.039 31.7992 29.8034 32.5131 29.2637L35.258 27.1843L38.1265 27.1857ZM29.7333 25.6353L34.2946 22.1797H35.027C35.1176 22.1791 35.2082 22.1815 35.2987 22.187H37.6615C38.847 22.1854 40.0108 22.5047 41.0295 23.111C42.0483 23.7174 42.8839 24.5881 43.4478 25.6309C44.1671 26.9678 44.3923 28.5052 44.093 29.983L39.427 25.3388C39.3255 25.2337 39.2038 25.15 39.0692 25.0928C38.9347 25.0357 38.79 25.0062 38.6438 25.0061H34.8933C34.6557 25.006 34.4245 25.0835 34.235 25.2269L31.198 27.5272C30.9433 27.7194 30.623 27.8033 30.3068 27.7606C29.9906 27.7178 29.704 27.552 29.5095 27.2991C29.4145 27.1753 29.3449 27.0339 29.3048 26.883C29.2646 26.7322 29.2548 26.5749 29.2757 26.4203C29.2966 26.2656 29.348 26.1166 29.4268 25.9819C29.5055 25.8472 29.6102 25.7294 29.7347 25.6353H29.7333ZM24.8595 37.1934C24.7752 37.1096 24.7082 37.01 24.6625 36.9003C24.6168 36.7905 24.5933 36.6729 24.5933 36.554C24.5933 36.4351 24.6168 36.3174 24.6625 36.2077C24.7082 36.098 24.7752 35.9984 24.8595 35.9146L26.2501 34.5342C26.4215 34.3647 26.6528 34.2696 26.8939 34.2696C27.1349 34.2696 27.3662 34.3647 27.5376 34.5342C27.7056 34.7012 27.8009 34.9277 27.8031 35.1646C27.8053 35.4015 27.7141 35.6297 27.5492 35.7998L27.5376 35.8129L26.147 37.1934L26.1339 37.2064C25.9618 37.3708 25.7323 37.4615 25.4943 37.4594C25.2564 37.4572 25.0286 37.3623 24.8595 37.1948V37.1934ZM24.146 32.2993C24.3108 32.4693 24.4017 32.6976 24.3989 32.9344C24.3962 33.1711 24.3001 33.3972 24.1315 33.5635L22.7409 34.9468C22.5695 35.1163 22.3382 35.2114 22.0971 35.2114C21.8561 35.2114 21.6248 35.1163 21.4534 34.9468C21.369 34.8631 21.3021 34.7635 21.2564 34.6538C21.2107 34.544 21.1872 34.4263 21.1872 34.3075C21.1872 34.1886 21.2107 34.0709 21.2564 33.9612C21.3021 33.8515 21.369 33.7518 21.4534 33.6681L22.8455 32.2862C23.0169 32.1167 23.2482 32.0216 23.4892 32.0216C23.7303 32.0216 23.9616 32.1167 24.133 32.2862L24.146 32.2993ZM31.9173 42.9274C31.7461 43.0972 31.5147 43.1925 31.2736 43.1925C31.0324 43.1925 30.801 43.0972 30.6298 42.9274C30.5455 42.8436 30.4785 42.744 30.4328 42.6343C30.3872 42.5246 30.3636 42.4069 30.3636 42.288C30.3636 42.1691 30.3872 42.0514 30.4328 41.9417C30.4785 41.832 30.5455 41.7324 30.6298 41.6486L32.0205 40.2667C32.1919 40.0972 32.4232 40.0022 32.6642 40.0022C32.9052 40.0022 33.1366 40.0972 33.3079 40.2667C33.3923 40.3505 33.4592 40.4501 33.5049 40.5598C33.5506 40.6695 33.5741 40.7872 33.5741 40.9061C33.5741 41.0249 33.5506 41.1426 33.5049 41.2524C33.4592 41.3621 33.3923 41.4617 33.3079 41.5455L31.9173 42.9274ZM28.9806 40.0095C28.8094 40.1794 28.578 40.2747 28.3368 40.2747C28.0957 40.2747 27.8643 40.1794 27.6931 40.0095C27.5245 39.8426 27.4286 39.6159 27.4261 39.3786C27.4237 39.1414 27.5149 38.9128 27.68 38.7424L27.6931 38.7308L29.0837 37.3489L29.0953 37.3358C29.2679 37.1715 29.4977 37.081 29.7359 37.0834C29.9741 37.0859 30.202 37.1811 30.3712 37.3489C30.4555 37.4326 30.5225 37.5322 30.5682 37.6419C30.6139 37.7517 30.6374 37.8694 30.6374 37.9882C30.6374 38.1071 30.6139 38.2248 30.5682 38.3345C30.5225 38.4442 30.4555 38.5439 30.3712 38.6276L28.9806 40.0095Z" fill="#BAE9F1"/>
<defs>
<linearGradient id="paint0_linear_508_186" x1="33" y1="0" x2="52.1042" y2="87.4143" gradientUnits="userSpaceOnUse">
<stop stop-color="#2C4262"/>
<stop offset="1" stop-color="#202F45"/>
</linearGradient>
<linearGradient id="paint1_linear_508_186" x1="33" y1="0" x2="33" y2="64.5" gradientUnits="userSpaceOnUse">
<stop stop-color="white"/>
<stop offset="1" stop-color="white" stop-opacity="0"/>
</linearGradient>
</defs>
</svg>
