<svg width="40" height="58" fill="none" xmlns="http://www.w3.org/2000/svg"><path d="M39.357 20.3a20.86 20.86 0 00-1.498-7.769 20.354 20.354 0 00-4.266-6.585 19.649 19.649 0 00-6.384-4.4A19.157 19.157 0 0019.68 0c-2.585 0-5.144.525-7.531 1.545a19.65 19.65 0 00-6.384 4.4 20.354 20.354 0 00-4.266 6.586A20.858 20.858 0 000 20.3c0 4.022 1.15 7.763 3.106 10.918h-.022L19.679 58l16.594-26.782h-.02A20.683 20.683 0 0039.358 20.3zM19.68 29a8.305 8.305 0 01-5.964-2.548 8.84 8.84 0 01-2.47-6.152 8.84 8.84 0 012.47-6.152A8.305 8.305 0 0119.68 11.6c2.236 0 4.382.917 5.963 2.548a8.841 8.841 0 012.47 6.152c0 2.307-.888 4.52-2.47 6.152A8.305 8.305 0 0119.68 29z" fill="#00B9BB"/><rect x="8.285" y="8.286" width="23.514" height="30.232" rx="10" fill="#00B9BB"/><path d="M11.714 30.123v-2.296h1.52v.4h-1.035v.548h.934v.4h-.934v.948h-.485zm2.332-2.296v2.296h-.486v-2.296h.486zm.854 0l.463.783h.018l.465-.783h.548l-.7 1.148.716 1.148h-.558l-.471-.784h-.018l-.47.784h-.557l.719-1.148-.705-1.148h.55zm3.227 2.33a.918.918 0 01-.41-.085.605.605 0 01-.304-.797.682.682 0 01.15-.192c.064-.06.14-.118.224-.176l.445-.293a.42.42 0 00.127-.115.239.239 0 00.04-.134.182.182 0 00-.055-.126c-.036-.04-.088-.058-.155-.057a.22.22 0 00-.194.107.209.209 0 00-.027.106.3.3 0 00.04.145c.027.05.063.102.108.157.045.055.093.114.147.177l1.088 1.249h-.498l-.908-1.011a6.688 6.688 0 01-.179-.213 1.235 1.235 0 01-.148-.238.637.637 0 01.018-.575.562.562 0 01.22-.21.668.668 0 01.33-.079.64.64 0 01.317.075.524.524 0 01.279.466.555.555 0 01-.081.295.812.812 0 01-.224.236l-.469.337a.54.54 0 00-.141.143.26.26 0 00-.005.284.284.284 0 00.115.103c.05.025.107.037.174.037a.56.56 0 00.238-.055.71.71 0 00.216-.158.791.791 0 00.214-.557h.395c0 .14-.015.267-.046.38a1.03 1.03 0 01-.127.294.806.806 0 01-.188.204 4.048 4.048 0 01-.13.08.81.81 0 01-.285.15 1.1 1.1 0 01-.311.046z" fill="#fff"/><path d="M20.29 30.123v-2.296h1.52v.4h-1.035v.548h.934v.4h-.934v.948h-.485zm1.846 0v-2.296h.485v1.896h.985v.4h-1.47zm2.276-2.296v2.296h-.485v-2.296h.485zm.4 2.296v-2.296h.905c.175 0 .323.034.445.1a.675.675 0 01.28.275.813.813 0 01.098.403.807.807 0 01-.098.404.68.68 0 01-.286.272.96.96 0 01-.45.098h-.578v-.39h.499a.49.49 0 00.23-.047.32.32 0 00.137-.136.425.425 0 00.046-.2.414.414 0 00-.046-.2.307.307 0 00-.136-.134.499.499 0 00-.234-.048h-.327v1.899h-.485z" fill="#042323"/><path fill-rule="evenodd" clip-rule="evenodd" d="M12.285 11.753v14.749h4.004v-2.758l-1.372-1.673 1.393-1.736v.405h3.225v-3.226h-3.246V14.98h6.366v-3.226h-10.37z" fill="#fff"/><path fill-rule="evenodd" clip-rule="evenodd" d="M27.659 26.516V11.767h-4.004v2.758l1.372 1.673-1.392 1.735v-.405h-3.226v3.226h3.246v2.535h-6.366v3.227h10.37z" fill="#042323"/><path stroke="#042323" stroke-width=".037" d="M26.373 19.172h-.229"/></svg>