<svg width="31" height="31" fill="none" xmlns="http://www.w3.org/2000/svg"><g filter="url(#filter0_ii_378_80)"><path d="M31 15.5C31 6.94 24.06 0 15.5 0 6.94 0 0 6.94 0 15.5 0 24.06 6.94 31 15.5 31 24.06 31 31 24.06 31 15.5z" fill="#223840"/><path d="M31 15.5C31 6.94 24.06 0 15.5 0 6.94 0 0 6.94 0 15.5 0 24.06 6.94 31 15.5 31 24.06 31 31 24.06 31 15.5z" fill="#fff" fill-opacity=".01"/><path d="M30.452 15.5C30.452 7.242 23.758.548 15.5.548S.548 7.242.548 15.5 7.242 30.453 15.5 30.453 30.452 23.758 30.452 15.5z" stroke="url(#paint0_linear_378_80)" stroke-width="1.095"/></g><path d="M12.75 9a.922.922 0 00-.917.929V15.5h-.916a.922.922 0 00-.917.929c0 .513.41.928.917.928h.916v.929h-.916a.922.922 0 00-.917.928c0 .514.41.929.917.929h.916v.928c0 .514.41.929.917.929a.922.922 0 00.917-.929v-.928h4.583a.922.922 0 00.917-.929.922.922 0 00-.917-.928h-4.583v-.929h3.208c2.277 0 4.125-1.871 4.125-4.178S19.152 9 16.875 9H12.75zm4.125 6.5h-3.208v-4.643h3.208c1.266 0 2.292 1.039 2.292 2.322 0 1.282-1.026 2.321-2.292 2.321z" fill="#BAE9F1"/><defs><linearGradient id="paint0_linear_378_80" x1="0" y1="-25.436" x2="15.5" y2="41.334" gradientUnits="userSpaceOnUse"><stop stop-color="#fff"/><stop offset="1" stop-color="#fff" stop-opacity="0"/></linearGradient><filter id="filter0_ii_378_80" x="0" y="0" width="31" height="35" filterUnits="userSpaceOnUse" color-interpolation-filters="sRGB"><feFlood flood-opacity="0" result="BackgroundImageFix"/><feBlend in="SourceGraphic" in2="BackgroundImageFix" result="shape"/><feColorMatrix in="SourceAlpha" values="0 0 0 0 0 0 0 0 0 0 0 0 0 0 0 0 0 0 127 0" result="hardAlpha"/><feOffset dy="1"/><feGaussianBlur stdDeviation="5"/><feComposite in2="hardAlpha" operator="arithmetic" k2="-1" k3="1"/><feColorMatrix values="0 0 0 0 0.890196 0 0 0 0 0.870588 0 0 0 0 1 0 0 0 0.15 0"/><feBlend in2="shape" result="effect1_innerShadow_378_80"/><feColorMatrix in="SourceAlpha" values="0 0 0 0 0 0 0 0 0 0 0 0 0 0 0 0 0 0 127 0" result="hardAlpha"/><feOffset dy="4"/><feGaussianBlur stdDeviation="7.5"/><feComposite in2="hardAlpha" operator="arithmetic" k2="-1" k3="1"/><feColorMatrix values="0 0 0 0 0.0801563 0 0 0 0 0.334748 0 0 0 0 0.3375 0 0 0 1 0"/><feBlend in2="effect1_innerShadow_378_80" result="effect2_innerShadow_378_80"/></filter></defs></svg>