<svg width="37" height="38" fill="none" xmlns="http://www.w3.org/2000/svg"><path d="M5.01 15.917v6.166h2.313v-6.166H5.011zm26.98 6.166v-6.166h-2.313v6.166h2.313zm0-6.166A13.49 13.49 0 0018.5 2.427v2.312a11.177 11.177 0 0111.177 11.178h2.313zM18.5 35.573a13.49 13.49 0 0013.49-13.49h-2.313A11.177 11.177 0 0118.5 33.26v2.313zM5.01 22.083a13.49 13.49 0 0013.49 13.49V33.26A11.177 11.177 0 017.323 22.083H5.011zm2.313-6.166A11.177 11.177 0 0118.5 4.739V2.427a13.49 13.49 0 00-13.49 13.49h2.313zm10.945-6.762l.817-.817a1.156 1.156 0 00-1.634 0l.817.817zm0 12.334l-.817.817a1.156 1.156 0 001.634 0l-.817-.817zm-3.9-10.068a1.156 1.156 0 001.634 1.635l-1.634-1.634zm6.167 1.635a1.156 1.156 0 101.634-1.634l-1.634 1.634zm-4.533 4.532a1.155 1.155 0 10-1.634 1.634l1.634-1.634zm6.167 1.634a1.156 1.156 0 10-1.634-1.634l1.634 1.634zM17.112 9.155V21.49h2.313V9.155h-2.313zm.34-.817l-3.084 3.084 1.634 1.634 3.084-3.084-1.635-1.634zm0 1.634l3.083 3.084 1.634-1.634-3.084-3.084-1.634 1.634zm1.633 10.7l-3.083-3.084-1.634 1.634 3.083 3.084 1.634-1.634zm0 1.634l3.084-3.084-1.634-1.634-3.084 3.084 1.634 1.634z" fill="#BAE9F1"/></svg>