<svg width="66" height="65" viewBox="0 0 66 65" fill="none" xmlns="http://www.w3.org/2000/svg">
<g opacity="0.1">
<rect x="0.75" y="1.2666" width="64.5" height="62.8706" rx="9.75" fill="#D9D9D9"/>
<rect x="0.75" y="1.2666" width="64.5" height="62.8706" rx="9.75" fill="url(#paint0_linear_528_72)"/>
<rect x="0.75" y="1.2666" width="64.5" height="62.8706" rx="9.75" stroke="url(#paint1_linear_528_72)" stroke-width="1.5"/>
</g>
<path d="M29.5006 27.9364V27.9365C29.5006 28.7405 29.8749 29.374 30.6319 29.84C31.3954 30.3101 32.7242 30.8076 34.6231 31.3314L34.6234 31.3315C36.4012 31.8324 37.7524 32.6292 38.6723 33.7247C39.5916 34.8195 40.051 36.0844 40.05 37.5173M29.5006 27.9364L40 37.5172M29.5006 27.9364C29.4996 27.2298 29.7869 26.6389 30.3665 26.1607C30.9445 25.6839 31.7911 25.4416 32.9142 25.4416C33.5762 25.4426 34.1273 25.5359 34.5691 25.7192C35.0124 25.9032 35.3983 26.1672 35.7272 26.5115M29.5006 27.9364L35.7272 26.5115M40.05 37.5173L40 37.5172M40.05 37.5173C40.05 37.5173 40.05 37.5173 40.05 37.5172H40M40.05 37.5173C40.05 39.2994 39.5073 40.6622 38.4155 41.5971C37.339 42.5189 36.0094 43.0941 34.4288 43.324M40 37.5172C40 39.2887 39.461 40.636 38.3829 41.5591C37.3049 42.4823 35.9702 43.0561 34.3788 43.2807M34.4288 43.324V43.2807H34.3788M34.4288 43.324V44.9273C34.4288 45.3646 34.2758 45.7334 33.9701 46.0305C33.6645 46.3276 33.2862 46.4754 32.8386 46.4743M34.4288 43.324C34.4145 43.3261 34.4002 43.3281 34.3858 43.3302L34.3788 43.2807M34.3788 43.2807L32.8386 46.4743M32.8386 46.4743L32.8388 46.4243V46.4743C32.8387 46.4743 32.8387 46.4743 32.8386 46.4743ZM32.8373 19.4285C32.3907 19.4275 32.013 19.5753 31.7074 19.8723C31.4017 20.1694 31.2487 20.5383 31.2487 20.9755V22.5776C30.1231 22.7121 29.0253 23.2269 27.9556 24.1182C26.8643 25.0274 26.3205 26.3025 26.3205 27.9365C26.3205 29.2939 26.735 30.4471 27.565 31.3931C28.3958 32.3399 29.9212 33.1482 32.131 33.8225C33.1565 34.147 33.9952 34.4539 34.6473 34.743C35.3005 35.0326 35.763 35.3028 36.0393 35.5528C36.5919 36.0529 36.8699 36.7307 36.8699 37.592C36.8689 38.5495 36.5097 39.2494 35.7951 39.701C35.0737 40.157 34.1918 40.3864 33.1468 40.3864C32.1779 40.3854 31.3657 40.1931 30.7077 39.8123C30.049 39.431 29.5031 38.8705 29.0707 38.1288L34.4273 20.9756M32.8373 19.4285C33.2858 19.4285 33.6645 19.5768 33.9701 19.8738C34.2758 20.1709 34.4283 20.5393 34.4273 20.9756M32.8373 19.4285C32.8373 19.4285 32.8372 19.4285 32.8372 19.4285V19.4785L32.8373 19.4285C32.8373 19.4285 32.8373 19.4285 32.8373 19.4285ZM34.4273 20.9756V22.5794M34.4273 20.9756V22.5794M34.4273 22.5794C35.3907 22.7323 36.2304 23.0381 36.9454 23.4978C37.6693 23.9632 38.2645 24.535 38.7304 25.2133C38.9713 25.5517 39.0177 25.9306 38.8721 26.3439C38.7261 26.7582 38.4257 27.055 37.9768 27.2343M34.4273 22.5794L37.9764 27.2345C37.9765 27.2344 37.9767 27.2344 37.9768 27.2343M37.9768 27.2343C37.6055 27.3889 37.2206 27.3952 36.8246 27.2546C36.431 27.1148 36.0652 26.8664 35.7272 26.5115M37.9768 27.2343L35.7272 26.5115M31.2987 44.9273L31.2487 44.9272L31.2487 44.9273H31.2987ZM31.2487 43.2461C31.2618 43.249 31.275 43.2518 31.2882 43.2547L31.2987 43.2058H31.2487V43.2461ZM26.0948 39.2985C26.0949 39.2987 26.095 39.2989 26.0951 39.2991L26.1395 39.2762L26.0945 39.2978C26.0946 39.298 26.0947 39.2983 26.0948 39.2985ZM27.0062 37.2838C27.0061 37.2839 27.006 37.2839 27.0058 37.284L27.0251 37.3301L27.0065 37.2837C27.0064 37.2837 27.0063 37.2838 27.0062 37.2838Z" fill="#BAE9F1" stroke="#BAE9F1" stroke-width="0.1"/>
<defs>
<linearGradient id="paint0_linear_528_72" x1="33" y1="0.516602" x2="52.0311" y2="87.7714" gradientUnits="userSpaceOnUse">
<stop stop-color="#2C4262"/>
<stop offset="1" stop-color="#202F45"/>
</linearGradient>
<linearGradient id="paint1_linear_528_72" x1="33" y1="0.516602" x2="33" y2="64.8872" gradientUnits="userSpaceOnUse">
<stop stop-color="white"/>
<stop offset="1" stop-color="white" stop-opacity="0"/>
</linearGradient>
</defs>
</svg>
